<?xml version="1.0" encoding="UTF-8" ?>
<svg version="1.1" width="64" height="32" xmlns="http://www.w3.org/2000/svg" shape-rendering="crispEdges">
<rect x="4" y="0" width="56" height="2" fill="#0E7DDC" />
<rect x="2" y="2" width="2" height="2" fill="#0E7DDC" />
<rect x="4" y="2" width="56" height="2" fill="#42B9FF" />
<rect x="60" y="2" width="2" height="2" fill="#0E7DDC" />
<rect x="0" y="4" width="2" height="22" fill="#0E7DDC" />
<rect x="2" y="4" width="2" height="20" fill="#42B9FF" />
<rect x="4" y="4" width="56" height="6" fill="#6FD1FE" />
<rect x="60" y="4" width="2" height="20" fill="#42B9FF" />
<rect x="62" y="4" width="2" height="22" fill="#0E7DDC" />
<rect x="4" y="10" width="3" height="1" fill="#6FD1FE" />
<rect x="7" y="10" width="5" height="2" fill="#299EF7" />
<rect x="12" y="10" width="3" height="1" fill="#6FD1FE" />
<rect x="15" y="10" width="5" height="2" fill="#299EF7" />
<rect x="20" y="10" width="2" height="2" fill="#6FD1FE" />
<rect x="22" y="10" width="6" height="2" fill="#299EF7" />
<rect x="28" y="10" width="2" height="2" fill="#6FD1FE" />
<rect x="30" y="10" width="6" height="2" fill="#299EF7" />
<rect x="36" y="10" width="1" height="16" fill="#6FD1FE" />
<rect x="37" y="10" width="5" height="2" fill="#299EF7" />
<rect x="42" y="10" width="3" height="1" fill="#6FD1FE" />
<rect x="45" y="10" width="5" height="2" fill="#299EF7" />
<rect x="50" y="10" width="2" height="1" fill="#6FD1FE" />
<rect x="52" y="10" width="6" height="2" fill="#299EF7" />
<rect x="58" y="10" width="2" height="16" fill="#6FD1FE" />
<rect x="4" y="11" width="2" height="15" fill="#6FD1FE" />
<rect x="6" y="11" width="1" height="8" fill="#299EF7" />
<rect x="12" y="11" width="1" height="8" fill="#299EF7" />
<rect x="13" y="11" width="1" height="15" fill="#6FD1FE" />
<rect x="14" y="11" width="1" height="7" fill="#299EF7" />
<rect x="42" y="11" width="1" height="7" fill="#299EF7" />
<rect x="43" y="11" width="1" height="15" fill="#6FD1FE" />
<rect x="44" y="11" width="1" height="8" fill="#299EF7" />
<rect x="50" y="11" width="1" height="8" fill="#299EF7" />
<rect x="51" y="11" width="1" height="15" fill="#6FD1FE" />
<rect x="7" y="12" width="1" height="7" fill="#299EF7" />
<rect x="8" y="12" width="3" height="2" fill="#6FD1FE" />
<rect x="11" y="12" width="1" height="7" fill="#299EF7" />
<rect x="15" y="12" width="1" height="7" fill="#299EF7" />
<rect x="16" y="12" width="5" height="5" fill="#6FD1FE" />
<rect x="21" y="12" width="2" height="6" fill="#299EF7" />
<rect x="23" y="12" width="4" height="5" fill="#6FD1FE" />
<rect x="27" y="12" width="2" height="6" fill="#299EF7" />
<rect x="29" y="12" width="1" height="14" fill="#6FD1FE" />
<rect x="30" y="12" width="2" height="7" fill="#299EF7" />
<rect x="32" y="12" width="2" height="2" fill="#6FD1FE" />
<rect x="34" y="12" width="2" height="3" fill="#299EF7" />
<rect x="37" y="12" width="2" height="7" fill="#299EF7" />
<rect x="39" y="12" width="2" height="5" fill="#6FD1FE" />
<rect x="41" y="12" width="1" height="7" fill="#299EF7" />
<rect x="45" y="12" width="1" height="7" fill="#299EF7" />
<rect x="46" y="12" width="3" height="2" fill="#6FD1FE" />
<rect x="49" y="12" width="1" height="7" fill="#299EF7" />
<rect x="52" y="12" width="2" height="7" fill="#299EF7" />
<rect x="54" y="12" width="2" height="2" fill="#6FD1FE" />
<rect x="56" y="12" width="2" height="3" fill="#299EF7" />
<rect x="8" y="14" width="3" height="2" fill="#299EF7" />
<rect x="32" y="14" width="2" height="2" fill="#299EF7" />
<rect x="46" y="14" width="3" height="2" fill="#299EF7" />
<rect x="54" y="14" width="2" height="2" fill="#299EF7" />
<rect x="34" y="15" width="2" height="1" fill="#6FD1FE" />
<rect x="56" y="15" width="2" height="1" fill="#6FD1FE" />
<rect x="8" y="16" width="3" height="10" fill="#6FD1FE" />
<rect x="32" y="16" width="1" height="10" fill="#6FD1FE" />
<rect x="33" y="16" width="3" height="1" fill="#299EF7" />
<rect x="46" y="16" width="3" height="10" fill="#6FD1FE" />
<rect x="54" y="16" width="1" height="10" fill="#6FD1FE" />
<rect x="55" y="16" width="3" height="1" fill="#299EF7" />
<rect x="16" y="17" width="4" height="2" fill="#299EF7" />
<rect x="20" y="17" width="1" height="9" fill="#6FD1FE" />
<rect x="23" y="17" width="4" height="2" fill="#299EF7" />
<rect x="33" y="17" width="1" height="9" fill="#6FD1FE" />
<rect x="34" y="17" width="2" height="2" fill="#299EF7" />
<rect x="39" y="17" width="2" height="2" fill="#299EF7" />
<rect x="55" y="17" width="1" height="9" fill="#6FD1FE" />
<rect x="56" y="17" width="2" height="2" fill="#299EF7" />
<rect x="14" y="18" width="1" height="8" fill="#6FD1FE" />
<rect x="21" y="18" width="1" height="8" fill="#6FD1FE" />
<rect x="22" y="18" width="1" height="1" fill="#299EF7" />
<rect x="27" y="18" width="1" height="1" fill="#299EF7" />
<rect x="28" y="18" width="1" height="8" fill="#6FD1FE" />
<rect x="42" y="18" width="1" height="8" fill="#6FD1FE" />
<rect x="6" y="19" width="2" height="7" fill="#6FD1FE" />
<rect x="11" y="19" width="2" height="7" fill="#6FD1FE" />
<rect x="15" y="19" width="5" height="7" fill="#6FD1FE" />
<rect x="22" y="19" width="6" height="7" fill="#6FD1FE" />
<rect x="30" y="19" width="2" height="7" fill="#6FD1FE" />
<rect x="34" y="19" width="2" height="7" fill="#6FD1FE" />
<rect x="37" y="19" width="5" height="7" fill="#6FD1FE" />
<rect x="44" y="19" width="2" height="7" fill="#6FD1FE" />
<rect x="49" y="19" width="2" height="7" fill="#6FD1FE" />
<rect x="52" y="19" width="2" height="7" fill="#6FD1FE" />
<rect x="56" y="19" width="2" height="7" fill="#6FD1FE" />
<rect x="2" y="24" width="2" height="2" fill="#299EF7" />
<rect x="60" y="24" width="2" height="2" fill="#299EF7" />
<rect x="2" y="26" width="2" height="2" fill="#0E7DDC" />
<rect x="4" y="26" width="56" height="2" fill="#299EF7" />
<rect x="60" y="26" width="2" height="2" fill="#0E7DDC" />
<rect x="4" y="28" width="2" height="2" fill="#0E7DDC" />
<rect x="6" y="28" width="52" height="2" fill="#299EF7" />
<rect x="58" y="28" width="2" height="2" fill="#0E7DDC" />
<rect x="6" y="30" width="52" height="2" fill="#0E7DDC" />
</svg>