<?xml version="1.0" encoding="UTF-8" ?>
<svg version="1.1" width="64" height="32" xmlns="http://www.w3.org/2000/svg" shape-rendering="crispEdges">
<rect x="4" y="0" width="56" height="2" fill="#072A4A" />
<rect x="2" y="2" width="2" height="2" fill="#072A4A" />
<rect x="4" y="2" width="56" height="2" fill="#6FD1FE" />
<rect x="60" y="2" width="2" height="2" fill="#072A4A" />
<rect x="0" y="4" width="2" height="22" fill="#072A4A" />
<rect x="2" y="4" width="2" height="20" fill="#6FD1FE" />
<rect x="4" y="4" width="56" height="1" fill="#42B9FF" />
<rect x="60" y="4" width="2" height="20" fill="#6FD1FE" />
<rect x="62" y="4" width="2" height="22" fill="#072A4A" />
<rect x="4" y="5" width="16" height="1" fill="#42B9FF" />
<rect x="20" y="5" width="12" height="3" fill="#082B4B" />
<rect x="32" y="5" width="5" height="11" fill="#42B9FF" />
<rect x="37" y="5" width="13" height="3" fill="#082B4B" />
<rect x="50" y="5" width="10" height="11" fill="#42B9FF" />
<rect x="4" y="6" width="6" height="20" fill="#42B9FF" />
<rect x="10" y="6" width="9" height="3" fill="#082B4B" />
<rect x="19" y="6" width="1" height="16" fill="#42B9FF" />
<rect x="20" y="8" width="3" height="17" fill="#082B4B" />
<rect x="23" y="8" width="6" height="2" fill="#42B9FF" />
<rect x="29" y="8" width="3" height="5" fill="#082B4B" />
<rect x="37" y="8" width="8" height="1" fill="#42B9FF" />
<rect x="45" y="8" width="3" height="3" fill="#082B4B" />
<rect x="48" y="8" width="2" height="6" fill="#42B9FF" />
<rect x="10" y="9" width="3" height="13" fill="#082B4B" />
<rect x="13" y="9" width="3" height="3" fill="#42B9FF" />
<rect x="16" y="9" width="3" height="12" fill="#082B4B" />
<rect x="37" y="9" width="5" height="3" fill="#42B9FF" />
<rect x="42" y="9" width="3" height="4" fill="#082B4B" />
<rect x="23" y="10" width="6" height="3" fill="#082B4B" />
<rect x="45" y="11" width="1" height="2" fill="#082B4B" />
<rect x="46" y="11" width="2" height="3" fill="#42B9FF" />
<rect x="13" y="12" width="3" height="3" fill="#082B4B" />
<rect x="37" y="12" width="4" height="2" fill="#42B9FF" />
<rect x="41" y="12" width="1" height="6" fill="#082B4B" />
<rect x="23" y="13" width="3" height="3" fill="#42B9FF" />
<rect x="26" y="13" width="3" height="8" fill="#082B4B" />
<rect x="29" y="13" width="3" height="3" fill="#42B9FF" />
<rect x="42" y="13" width="2" height="3" fill="#082B4B" />
<rect x="44" y="13" width="2" height="1" fill="#42B9FF" />
<rect x="37" y="14" width="2" height="2" fill="#42B9FF" />
<rect x="39" y="14" width="2" height="4" fill="#082B4B" />
<rect x="44" y="14" width="6" height="3" fill="#082B4B" />
<rect x="13" y="15" width="3" height="3" fill="#42B9FF" />
<rect x="23" y="16" width="3" height="3" fill="#082B4B" />
<rect x="29" y="16" width="5" height="3" fill="#082B4B" />
<rect x="34" y="16" width="3" height="10" fill="#42B9FF" />
<rect x="37" y="16" width="2" height="4" fill="#082B4B" />
<rect x="42" y="16" width="2" height="2" fill="#42B9FF" />
<rect x="50" y="16" width="2" height="6" fill="#082B4B" />
<rect x="52" y="16" width="8" height="10" fill="#42B9FF" />
<rect x="44" y="17" width="5" height="1" fill="#42B9FF" />
<rect x="49" y="17" width="1" height="6" fill="#082B4B" />
<rect x="13" y="18" width="3" height="3" fill="#082B4B" />
<rect x="39" y="18" width="1" height="2" fill="#082B4B" />
<rect x="40" y="18" width="2" height="2" fill="#42B9FF" />
<rect x="42" y="18" width="5" height="2" fill="#082B4B" />
<rect x="47" y="18" width="2" height="2" fill="#42B9FF" />
<rect x="23" y="19" width="3" height="3" fill="#42B9FF" />
<rect x="29" y="19" width="5" height="1" fill="#42B9FF" />
<rect x="29" y="20" width="3" height="5" fill="#082B4B" />
<rect x="32" y="20" width="2" height="2" fill="#42B9FF" />
<rect x="37" y="20" width="3" height="6" fill="#42B9FF" />
<rect x="40" y="20" width="4" height="1" fill="#082B4B" />
<rect x="44" y="20" width="2" height="2" fill="#42B9FF" />
<rect x="46" y="20" width="1" height="5" fill="#082B4B" />
<rect x="47" y="20" width="1" height="1" fill="#42B9FF" />
<rect x="48" y="20" width="1" height="4" fill="#082B4B" />
<rect x="13" y="21" width="6" height="1" fill="#42B9FF" />
<rect x="26" y="21" width="3" height="1" fill="#42B9FF" />
<rect x="40" y="21" width="3" height="4" fill="#082B4B" />
<rect x="43" y="21" width="1" height="1" fill="#42B9FF" />
<rect x="47" y="21" width="1" height="4" fill="#082B4B" />
<rect x="10" y="22" width="8" height="4" fill="#42B9FF" />
<rect x="18" y="22" width="2" height="3" fill="#082B4B" />
<rect x="23" y="22" width="4" height="3" fill="#082B4B" />
<rect x="27" y="22" width="2" height="4" fill="#42B9FF" />
<rect x="32" y="22" width="2" height="3" fill="#082B4B" />
<rect x="43" y="22" width="3" height="3" fill="#082B4B" />
<rect x="50" y="22" width="1" height="1" fill="#082B4B" />
<rect x="51" y="22" width="1" height="4" fill="#42B9FF" />
<rect x="49" y="23" width="2" height="3" fill="#42B9FF" />
<rect x="2" y="24" width="2" height="2" fill="#299EF7" />
<rect x="48" y="24" width="1" height="2" fill="#42B9FF" />
<rect x="60" y="24" width="2" height="2" fill="#299EF7" />
<rect x="18" y="25" width="9" height="1" fill="#42B9FF" />
<rect x="29" y="25" width="5" height="1" fill="#42B9FF" />
<rect x="40" y="25" width="8" height="1" fill="#42B9FF" />
<rect x="2" y="26" width="2" height="2" fill="#072A4A" />
<rect x="4" y="26" width="56" height="2" fill="#299EF7" />
<rect x="60" y="26" width="2" height="2" fill="#072A4A" />
<rect x="4" y="28" width="2" height="2" fill="#072A4A" />
<rect x="6" y="28" width="52" height="2" fill="#0E7DDC" />
<rect x="58" y="28" width="2" height="2" fill="#072A4A" />
<rect x="6" y="30" width="52" height="2" fill="#072A4A" />
</svg>